<?xml version="1.0" encoding="utf-8" ?><svg xmlns="http://www.w3.org/2000/svg" xmlns:xlink="http://www.w3.org/1999/xlink" width="638" height="134" viewBox="0 0 638 134"><clipPath id="cl_3"><rect x="-8.392334e-05" width="637.99994" height="134"/></clipPath><g clip-path="url(#cl_3)"><path fill="#D66A50" transform="matrix(1.06689 0 0 1.06349 -96.0201 0)" d="M179.185 65.1291C187.399 64.459 203.598 64.9742 212.484 64.994C210.349 67.4947 208.702 71.4843 206.943 74.4578C200.731 84.8214 194.899 95.6118 188.112 105.607C181.019 116.053 168.897 114.257 158.1 114.24L133.473 114.223C126.296 114.211 112.161 114.667 105.51 114.05C104.155 112.973 100.775 110.443 100.904 108.742C101.392 102.299 109.886 87.8973 116.188 86.351C129.161 83.1675 142.134 86.4291 155.583 84.5609C170.89 82.4345 166.733 67.0842 179.185 65.1291Z"/><path fill="#D66A50" transform="matrix(1.06689 0 0 1.06349 -96.0201 0)" d="M172.406 20.0173C188.635 19.7328 206.742 19.518 222.959 20.8314C225.653 21.0496 229.979 23.8933 229.371 26.8483C227.918 33.9176 220.624 45.9934 213.568 48.7517C197.478 52.0375 175.438 43.1883 163.201 56.9158C160.765 61.0993 158.352 65.9822 154.734 69.0167C151.147 69.4666 146.48 69.2259 142.772 69.2655C134.704 69.3516 126.484 69.0626 118.433 69.4703C122.247 61.5934 127.253 54.1168 131.337 46.808C145.15 22.0913 144.566 21.3315 172.406 20.0173Z"/><path fill="#EAE5E4" transform="matrix(1.06689 0 0 1.06349 -96.0201 0)" d="M443.194 37.5999C446.429 38.055 450.313 37.6712 454.082 38.1466C454.995 46.8166 453.957 57.3848 454.279 66.2411C454.601 75.1171 454.163 84.3302 454.238 93.2347C454.243 93.8101 454.127 96.0384 453.571 96.5345C451.707 97.5166 445.736 97.3457 443.789 97.3691C443.418 96.0298 443.063 93.9367 442.78 92.521C435.722 97.7818 433.587 98.997 424.946 96.3813C424.423 96.4046 421.425 94.5059 420.915 94.0739C411.991 86.5174 411.516 67.7907 418.297 59.1127C420.821 55.8251 424.575 53.7074 428.693 53.2472C435.119 52.4871 438.614 54.713 443.343 58.427C442.938 52.6309 443.196 43.6038 443.194 37.5999ZM426.306 66.0287C424.752 73.3703 423.449 79.4459 427.878 86.2462C428.08 86.5558 428.285 86.8633 428.493 87.1688C431.707 88.7758 432.902 88.932 436.508 88.6458C445.082 85.3231 445.101 68.8553 438.607 62.8274C436.861 62.4077 434.219 61.7108 432.418 62.142C428.881 62.9692 428.689 63.2311 426.306 66.0287Z"/><path fill="#EAE5E4" transform="matrix(1.06689 0 0 1.06349 -96.0201 0)" d="M337.789 53.3431C358.416 52.4089 362.449 61.5917 361.225 80.6192C360.922 85.3249 362.122 91.901 360.783 96.3534C359.498 97.4892 352.148 97.8053 350.651 96.6258C350.073 95.3947 350.145 94.0065 350.116 92.6456C345.738 94.9252 342.947 97.5962 337.248 97.6772C331.775 97.7549 328.643 95.8311 324.851 92.2515C321.302 87.7672 321.787 81.0332 325.5 76.9343C330.93 70.9397 342.555 72.0402 349.998 71.6523C349.846 70.1335 349.724 68.5712 349.482 67.0668C348.246 59.3761 340.829 61.5089 335.873 63.1781C335.231 64.1038 334.458 65.6219 333.897 66.6473C331.392 66.4873 326.23 66.1457 323.935 65.5804L323.723 64.9528C325.56 57.1801 330.949 55.2816 337.789 53.3431ZM343.486 89.9532C349.882 87.5007 349.54 84.5091 349.903 78.2753C346.94 78.1958 342.153 77.9713 339.276 78.361C328.507 81.0927 333.992 92.8138 343.02 90.1137C343.178 90.0682 343.334 90.0146 343.486 89.9532Z"/><path fill="#EAE5E4" transform="matrix(1.06689 0 0 1.06349 -96.0201 0)" d="M548.905 53.315C555.569 53.0873 562.908 53.3221 567.902 58.4876C571.631 62.3179 572.025 67.7809 571.873 72.8379C571.629 80.9489 572.03 89.0778 571.778 97.1894C569.625 97.2763 567.463 97.4496 565.315 97.5108C561.363 97.6235 561.247 95.5853 560.883 92.5534C552.027 98.5596 543.702 100.572 535.636 91.9471C534.554 89.9515 533.616 86.8994 533.658 84.64C533.921 70.6034 551.495 71.9816 560.849 71.8096C560.646 61.0956 556.731 59.4902 546.921 63.124C546.268 64.014 545.413 65.7262 544.862 66.7492C540.518 65.9517 538.864 65.5872 534.564 65.7103C536.815 57.0297 540.634 55.4709 548.905 53.315ZM546.153 89.0681C548.518 90.0117 551.904 91.0837 554.446 90.0281C554.488 90.0104 554.53 89.9918 554.571 89.9724C560.525 87.7021 560.749 84.05 560.785 78.2749C557.628 78.1857 552.962 77.9617 549.881 78.381C543.844 80.1101 543.444 84.0162 546.153 89.0681Z"/><path fill="#EAE5E4" transform="matrix(1.06689 0 0 1.06349 -96.0201 0)" d="M627.139 37.8949C630.538 37.7674 634.742 37.7628 638.093 38.1171C638.584 43.9863 638.384 52.6551 638.319 58.6935C642.287 55.9097 644.597 52.826 649.979 53.0956C666.566 53.9263 665.214 69.3976 665.105 81.6172C665.059 86.7774 665.094 91.8325 664.986 96.8849C661.854 97.4355 657.305 97.1332 654.079 96.9698C653.543 91.5794 653.761 83.6185 653.77 78.0784L653.762 75.9318C653.73 71.5492 654.072 66.1001 650.924 62.9971C629.133 58.0664 642.59 86.1979 637.282 96.6644C636.863 97.4902 628.58 97.1409 627.251 97.1016C626.659 92.1816 626.84 76.1007 626.947 70.5144C627.13 60.9345 626.461 47.1404 627.139 37.8949Z"/><path fill="#EAE5E4" transform="matrix(1.06689 0 0 1.06349 -96.0201 0)" d="M371.187 37.6665C374.93 37.8321 378.319 37.7375 382.112 38.1159C382.858 47.0068 381.523 60.8874 382.44 68.798C382.803 68.839 383.215 68.9036 383.505 68.6176C388.352 63.8545 391.413 58.0831 397.074 53.9151L408.285 53.764C406.027 56.6804 397.812 66.3315 396.828 69.0194C397.573 71.3646 398.818 73.2173 399.749 75.3662C402.185 80.989 406.238 87.6713 408.256 93.3298C408.623 94.1344 409.844 96.0864 410.349 96.9365C405.908 97.3703 403.422 97.2318 399.078 96.8694C395.405 90.7832 393.061 82.8334 388.903 75.6666C386.742 79.0217 384.596 79.6435 382.777 84.11C381.049 88.3559 383.287 94.2282 381.636 96.2271C379.429 97.77 374.231 97.3448 371.404 97.3436C370.889 92.5484 371.169 81.7087 371.172 76.5114L371.187 37.6665Z"/><path fill="#EAE5E4" transform="matrix(1.06689 0 0 1.06349 -96.0201 0)" d="M594.781 53.3407C605.866 52.4449 614.535 54.9855 616.943 66.7293C615.289 66.5404 609.197 66.5658 607.117 66.4969C607.066 66.3514 607.014 66.2064 606.96 66.0619C603.561 56.9628 588.641 61.6696 591.58 66.8101C595.459 73.5923 612.927 70.6401 616.629 79.9661C618.269 84.0973 617.215 87.9232 615.702 91.6762C611.023 95.7663 608.676 96.4307 602.856 97.4575C593.603 98.0598 582.439 95.8986 580.029 85.085C579.923 84.6091 580.185 84.4838 580.489 84.1361C581.983 84.7583 584.436 83.4443 586.546 83.7427C590.451 84.2949 590.896 86.3077 593.077 88.9098C596.688 89.9996 602.966 91.6782 605.734 87.9578C607.087 86.1379 606.46 83.9387 606.076 81.8718C600.237 80.5361 593.182 78.6749 587.82 76.0363C585.444 74.8672 582.043 72.0168 581.521 69.2198C579.576 58.7879 586.363 55.7409 594.781 53.3407Z"/><path fill="#EAE5E4" transform="matrix(1.06689 0 0 1.06349 -96.0201 0)" d="M259.118 53.3347C267.428 53.0201 277.932 54.0954 280.639 63.8086C280.928 64.8456 281.182 65.7404 280.638 66.6688C277.722 66.7376 275.065 66.917 272.16 67.1344C271.009 64.9553 270.394 63.8417 268.931 61.8759C265.66 61.2117 254.926 59.1511 255.804 66.3735C257.354 70.9943 266.715 71.6086 271.227 73.0098C287.212 77.9729 284.9 94.9442 267.753 97.3297C261.231 98.2431 251.498 96.8681 247.251 91.2085C246.224 89.8407 244.413 86.5562 244.653 84.8341C246.603 84.0513 252.423 83.9985 254.549 84.4891C255.763 84.7691 255.671 87.8879 256.948 88.5484C258.936 89.7897 265.903 90.6509 268.021 89.5925C273.65 86.78 272.018 82.3903 266.982 80.8678C260.51 78.9117 247.588 76.9041 245.891 69.3069C243.546 58.8106 251.029 55.778 259.118 53.3347Z"/><path fill="#EAE5E4" transform="matrix(1.06689 0 0 1.06349 -96.0201 0)" d="M503.749 53.3262C512.848 52.7061 520.889 54.6229 525.274 63.2509C526.138 64.9502 525.818 65.5796 527.139 67.6093C513.24 70.2037 520.376 70.4475 512.81 62.9112C507.905 61.7977 507.444 61.7556 502.495 62.82C497.521 67.2179 498.093 74.5329 498.848 80.5853C499.468 85.5623 503.999 89.9304 509.217 88.866C513.07 88.0797 514.523 85.465 516.526 82.4504C517.586 80.9044 525.253 82.8001 526.993 83.1338C526.492 84.8431 525.918 86.7489 525.093 88.3261C520.17 97.7449 506.723 100.029 497.789 95.0869C493.11 92.5164 489.653 88.1806 488.187 83.0454C485.944 75.1969 487.088 64.2836 493.2 58.3132C496.235 55.3476 499.808 54.4428 503.749 53.3262Z"/><path fill="#EAE5E4" transform="matrix(1.06689 0 0 1.06349 -96.0201 0)" d="M294.83 41.4943C298.519 41.7041 301.789 41.6012 305.487 41.5008C305.511 45.532 305.496 49.5633 305.445 53.5942C308.588 53.6516 311.993 53.6024 315.061 54.2123C316.139 63.5151 313.946 62.4831 305.463 62.305C305.543 67.4052 304.548 84.3975 306.935 87.3806C309.204 88.5733 312.087 88.4721 314.592 88.4557L314.543 95.419L314.195 96.5377C312.839 97.3529 311.216 97.2191 309.767 97.2792C293.416 97.9573 294.361 88.1757 294.509 75.1949C294.55 71.6169 294.51 66.4434 294.507 62.4429C286.708 62.4617 287.692 61.3875 288.083 53.9496C289.913 53.7113 292.816 53.6958 294.736 53.6305C294.567 50.9224 294.402 43.9183 294.83 41.4943Z"/><path fill="#EAE5E4" transform="matrix(1.06689 0 0 1.06349 -96.0201 0)" d="M469.627 85.2196C474.997 85.0741 475.914 86.7316 477.75 91.4885C477.386 92.3045 477 93.1107 476.593 93.9064C475.612 95.7966 475.147 96.3744 473.073 97.0284C471.163 97.5457 469.541 96.8921 467.75 96.2798C464.301 90.8495 464.795 89.3069 469.627 85.2196Z"/></g></svg>