<?xml version="1.0" encoding="utf-8" ?><svg xmlns="http://www.w3.org/2000/svg" xmlns:xlink="http://www.w3.org/1999/xlink" width="158" height="134" viewBox="0 0 158 134"><clipPath id="cl_4"><rect x="3.0517578e-05" width="158" height="134"/></clipPath><g clip-path="url(#cl_4)"><path fill="#D66A50" transform="matrix(1.06757 0 0 1.06349 -96.0811 0)" d="M179.185 65.1291C187.399 64.459 203.598 64.9742 212.484 64.994C210.349 67.4947 208.702 71.4843 206.943 74.4578C200.731 84.8214 194.899 95.6118 188.112 105.607C181.019 116.053 168.897 114.257 158.1 114.24L133.473 114.223C126.296 114.211 112.161 114.667 105.51 114.05C104.155 112.973 100.775 110.443 100.904 108.742C101.392 102.299 109.886 87.8973 116.188 86.351C129.161 83.1675 142.134 86.4291 155.583 84.5609C170.89 82.4345 166.733 67.0842 179.185 65.1291Z"/><path fill="#D66A50" transform="matrix(1.06757 0 0 1.06349 -96.0811 0)" d="M172.406 20.0173C188.635 19.7328 206.742 19.518 222.959 20.8314C225.653 21.0496 229.979 23.8933 229.371 26.8483C227.918 33.9176 220.624 45.9934 213.568 48.7517C197.478 52.0375 175.438 43.1883 163.201 56.9158C160.765 61.0993 158.352 65.9822 154.734 69.0167C151.147 69.4666 146.48 69.2259 142.772 69.2655C134.704 69.3516 126.484 69.0626 118.433 69.4703C122.247 61.5934 127.253 54.1168 131.337 46.808C145.15 22.0913 144.566 21.3315 172.406 20.0173Z"/></g></svg>